<?xml version="1.0" encoding="UTF-8" standalone="no"?>
<!-- Created with Inkscape (http://www.inkscape.org/) -->

<svg
   width="512"
   height="512"
   viewBox="0 0 512 512"
   version="1.1"
   id="svg1"
   inkscape:export-filename="bitmap.png"
   inkscape:export-xdpi="192"
   inkscape:export-ydpi="192"
   xml:space="preserve"
   inkscape:version="1.4.2 (ebf0e940d0, 2025-05-08)"
   sodipodi:docname="icon-success.svg"
   xmlns:inkscape="http://www.inkscape.org/namespaces/inkscape"
   xmlns:sodipodi="http://sodipodi.sourceforge.net/DTD/sodipodi-0.dtd"
   xmlns:xlink="http://www.w3.org/1999/xlink"
   xmlns="http://www.w3.org/2000/svg"
   xmlns:svg="http://www.w3.org/2000/svg"><sodipodi:namedview
     id="namedview1"
     pagecolor="#ffffff"
     bordercolor="#000000"
     borderopacity="0.25"
     inkscape:showpageshadow="2"
     inkscape:pageopacity="0.0"
     inkscape:pagecheckerboard="0"
     inkscape:deskcolor="#d1d1d1"
     inkscape:document-units="px"
     inkscape:zoom="1.6523438"
     inkscape:cx="256"
     inkscape:cy="256"
     inkscape:window-width="1870"
     inkscape:window-height="1024"
     inkscape:window-x="50"
     inkscape:window-y="30"
     inkscape:window-maximized="1"
     inkscape:current-layer="layer1" /><defs
     id="defs1"><inkscape:path-effect
       effect="powermask"
       id="path-effect38"
       is_visible="true"
       lpeversion="1"
       uri="#mask-powermask-path-effect38"
       invert="false"
       hide_mask="false"
       background="true"
       background_color="#ffffffff" /><linearGradient
       id="linearGradient1"
       inkscape:collect="always"><stop
         style="stop-color:#3ced21;stop-opacity:1;"
         offset="0"
         id="stop1" /><stop
         style="stop-color:#20931e;stop-opacity:1;"
         offset="0.99908531"
         id="stop2" /></linearGradient><inkscape:path-effect
       effect="fillet_chamfer"
       id="path-effect1"
       is_visible="true"
       lpeversion="1"
       nodesatellites_param="F,0,0,1,0,252.63786,0,1 @ F,0,0,1,0,0,0,1 @ F,0,0,1,0,252.63786,0,1 @ F,0,0,1,0,0,0,1 @ F,0,0,1,0,0,0,1 @ F,0,0,1,0,0,0,1"
       radius="0"
       unit="px"
       method="auto"
       mode="F"
       chamfer_steps="1"
       flexible="false"
       use_knot_distance="true"
       apply_no_radius="true"
       apply_with_radius="true"
       only_selected="false"
       hide_knots="false" /><linearGradient
       inkscape:collect="always"
       xlink:href="#linearGradient1"
       id="linearGradient2"
       x1="225.55016"
       y1="39.33839"
       x2="286.44974"
       y2="472.66153"
       gradientUnits="userSpaceOnUse" /><mask
       maskUnits="userSpaceOnUse"
       id="mask-powermask-path-effect38"><path
         id="mask-powermask-path-effect38_box"
         style="fill:#ffffff;fill-opacity:1"
         d="M 36.209193,2.3621368 H 475.79081 V 509.63786 H 36.209193 Z" /><g
         style="fill:none;stroke:currentColor;stroke-width:2;stroke-linecap:round;stroke-linejoin:round"
         id="g38"
         transform="matrix(11.277915,0,0,11.277915,120.66502,120.68376)"><path
           d="M 12,18 V 5"
           id="path31" /><path
           d="M 15,13 A 4.17,4.17 0 0 1 12,9 4.17,4.17 0 0 1 9,13"
           id="path32" /><path
           d="M 17.598,6.5 A 3,3 0 1 0 12,5 3,3 0 1 0 6.402,6.5"
           id="path33" /><path
           d="m 17.997,5.125 a 4,4 0 0 1 2.526,5.77"
           id="path34" /><path
           d="m 18,18 a 4,4 0 0 0 2,-7.464"
           id="path35" /><path
           d="M 19.967,17.483 A 4,4 0 1 1 12,18 4,4 0 1 1 4.033,17.483"
           id="path36" /><path
           d="M 6,18 A 4,4 0 0 1 4,10.536"
           id="path37" /><path
           d="m 6.003,5.125 a 4,4 0 0 0 -2.526,5.77"
           id="path38" /></g></mask><filter
       id="mask-powermask-path-effect38_inverse"
       inkscape:label="filtermask-powermask-path-effect38"
       style="color-interpolation-filters:sRGB"
       height="100"
       width="100"
       x="-50"
       y="-50"><feColorMatrix
         id="mask-powermask-path-effect38_primitive1"
         values="1"
         type="saturate"
         result="fbSourceGraphic" /><feColorMatrix
         id="mask-powermask-path-effect38_primitive2"
         values="-1 0 0 0 1 0 -1 0 0 1 0 0 -1 0 1 0 0 0 1 0 "
         in="fbSourceGraphic" /></filter></defs><g
     inkscape:label="Layer 1"
     inkscape:groupmode="layer"
     id="layer1"><path
       id="path1"
       style="fill:url(#linearGradient2);stroke-width:4"
       d="m 256,508.63786 0,0 0,0 A 437.5816,437.5816 60 0 1 37.209193,129.68107 C 130.31283,119.04521 203.2431,76.938897 256,3.3621368 306.3361,68.869551 379.26637,110.97586 474.79081,129.68107 v 0 A 437.5816,437.5816 120 0 1 256,508.63786 Z"
       inkscape:path-effect="#path-effect1;#path-effect38"
       inkscape:original-d="M 474.79081,382.31893 256,508.63786 37.209192,382.31893 l 10e-7,-252.63786 C 130.31283,119.04521 203.2431,76.938897 256,3.3621368 306.3361,68.869551 379.26637,110.97586 474.79081,129.68107 Z"
       sodipodi:nodetypes="ccccccc"
       mask="url(#mask-powermask-path-effect38)" /></g></svg>
